<svg width="77" height="33" viewBox="0 0 77 33" fill="none" xmlns="http://www.w3.org/2000/svg">
<path fill-rule="evenodd" clip-rule="evenodd" d="M63.2526 21.1329V31.4435H55.6477V31.2831C55.4193 31.367 55.1786 31.4479 54.9256 31.5256C53.8348 31.8608 52.6862 32.0283 51.4796 32.0283C50.0415 32.0283 48.6796 31.7694 47.3938 31.2514C46.108 30.7334 44.9715 30.0174 43.9844 29.1034C42.9972 28.1893 42.2202 27.1321 41.6535 25.9316C41.0868 24.7311 40.8034 23.4545 40.8034 22.1017C40.8034 21.0139 40.9987 19.9553 41.3892 18.9258C40.9036 18.7884 40.4524 18.7197 40.0356 18.7197C39.3896 18.7197 38.7772 18.8873 38.1983 19.2224C37.6194 19.5576 37.1532 19.9933 36.7998 20.5295C36.4464 21.0658 36.2697 21.6447 36.2697 22.2662V31.4433H32.0284L32.0285 31.4434H23.3632L21.5534 26.4344H10.4751L8.66523 31.4434H0L12.2849 1.27965H19.7436L28.6647 23.1843V12.7235H36.2697V15.356C37.0497 14.3444 37.9607 13.5553 39.0027 12.9886C40.0447 12.4219 41.1202 12.1385 42.2293 12.1385C42.9484 12.1385 43.7101 12.2604 44.5144 12.5041C45.2554 12.7287 45.8774 13.0152 46.3805 13.3639C46.6491 13.2233 46.9259 13.0921 47.211 12.9703C48.5089 12.4158 49.9196 12.1385 51.443 12.1385C52.6374 12.1385 53.7952 12.3031 54.9164 12.6321C55.1737 12.7076 55.4174 12.7866 55.6477 12.8692V0H63.2526V14.4786C64.1179 13.7352 65.096 13.1593 66.1867 12.7511C67.2775 12.3428 68.3835 12.1386 69.5048 12.1386C70.9307 12.1386 72.2073 12.4616 73.3346 13.1075C74.462 13.7535 75.3547 14.6279 76.0128 15.7309C76.6709 16.8338 77 18.0861 77 19.4876V31.4435H69.3951V21.1329C69.3951 20.1945 69.1148 19.4419 68.5541 18.8752C67.9935 18.3085 67.2501 18.0252 66.3238 18.0252C65.7145 18.0252 65.1782 18.1531 64.7151 18.4091C64.252 18.665 63.8925 19.0245 63.6365 19.4876C63.3806 19.9508 63.2526 20.4992 63.2526 21.1329ZM55.6477 17.6594V26.5075L55.0261 25.2278C54.7946 25.3862 54.4747 25.5294 54.0664 25.6574C53.6581 25.7854 53.2102 25.8493 52.7227 25.8493C51.9305 25.8493 51.2419 25.6757 50.657 25.3283C50.072 24.981 49.6241 24.5209 49.3133 23.9481C49.0025 23.3753 48.8471 22.7537 48.8471 22.0834C48.8471 21.5472 48.9781 20.9866 49.2402 20.4016C49.5022 19.8166 49.9166 19.323 50.4833 18.9208C51.05 18.5186 51.7843 18.3175 52.6862 18.3175C53.6368 18.3175 54.4168 18.5247 55.0261 18.9391L55.6477 17.6594ZM13.2172 19.3777L16.0142 12.2115L18.8112 19.3777H13.2172Z" fill="#1B1D23"/>
</svg>
